# xmcd
#
# Track frame offsets:
#	150
#	10120
#	22327
#	36105
#	50725
#	60787
#	74505
#	87322
#	101180
#	111575
#	124112
#	138360
#	150405
#	164912
#	176117
#	187452
#	198825
#	212462
#	223437
#	235162
#
# Disc length: 3312
#
# Revision: 2
# Processed by: cddbd v1.5.1PL0 Copyright (c) Steve Scherf et al.
# Submitted via: ExactAudioCopy v0.90b4
# Normalized: r0:DSETVAR1,TDELIM( - );r1:TSWAP
#
DISCID=350cee14
DTITLE=Various Artist - The Golden Age Of Country Music - Disc 2
DYEAR=1900
DGENRE=Country
TTITLE0=Jimmy Wakely And Margaret Whiting - Slipping Around
TTITLE1=Ernest Tubb - I Love You Because
TTITLE2=Red Foley - Birmingham Bounce
TTITLE3=Tennessee Ernie Ford - The Cry Of The Wild Goose
TTITLE4=Moon Mullican - I'll Sail My Ship Alone
TTITLE5=Pee Wee King And His Golden West Cowboys - Slow Poke
TTITLE6=Hank Snow - The Rhumba Boogie
TTITLE7=Patti Page - The Tennessee Waltz
TTITLE8=Lefty Frizzell - Give Me More, More, More (Of Your Kisses)
TTITLE9=Webb Pierce - Back Street Affair
TTITLE10=Slim Whitman - Indian Love Call
TTITLE11=Hank Thompson And His Brazos Valley Boys - The Wild Side Of Life
TTITLE12=Red Foley - Midnight
TTITLE13=Hank Locklin - Let Me Be The One
TTITLE14=Hank Snow - (Now And Then There's) A Fool Such As I
TTITLE15=Carl Smith - Hey Joe!
TTITLE16=The Davis Sisters - I Forgot More Than You'll Ever Know
TTITLE17=The Carlisles - No Help Wanted
TTITLE18=Eddy Arnold - I Really Don't Want To Know
TTITLE19=Kitty Wells And Red Foley - One By One
EXTD=
EXTT0=
EXTT1=
EXTT2=
EXTT3=
EXTT4=
EXTT5=
EXTT6=
EXTT7=
EXTT8=
EXTT9=
EXTT10=
EXTT11=
EXTT12=
EXTT13=
EXTT14=
EXTT15=
EXTT16=
EXTT17=
EXTT18=
EXTT19=
PLAYORDER=
